<svg width="37" height="37" viewBox="0 0 37 37" fill="none" xmlns="http://www.w3.org/2000/svg">
<path d="M35.8742 17.1839C35.8169 17.1266 35.7493 17.0794 35.6715 17.0425C35.5447 16.9974 35.4076 16.9624 35.2604 16.9376L35.0395 16.9005L21.3291 15.9319L20.9159 15.8864C20.8178 15.8699 20.7142 15.8683 20.6051 15.8818C20.4961 15.8953 20.3877 15.889 20.2799 15.8629C20.0536 15.8408 19.8314 15.8432 19.6133 15.8702C19.3353 15.9188 19.0818 15.9716 18.8528 16.0286C18.6539 16.0746 18.4182 16.1861 18.1458 16.3629C17.8121 16.601 17.4513 16.914 17.0633 17.302C16.6958 17.6696 16.393 18.0202 16.1549 18.3538C15.9781 18.6262 15.8666 18.8619 15.8205 19.0609L15.7189 19.4493C15.685 19.5787 15.666 19.7028 15.6621 19.8213C15.6352 20.0394 15.6328 20.2616 15.6549 20.488C15.681 20.5957 15.6873 20.7041 15.6738 20.8131C15.6603 20.9222 15.6618 21.0258 15.6783 21.124L15.7239 21.5371L16.6925 35.2475L16.7296 35.4684C16.7544 35.6157 16.7893 35.7527 16.8345 35.8796L16.9453 36.1129L17.1173 36.2849C17.232 36.3996 17.4085 36.4332 17.647 36.3858C17.7561 36.3724 17.8855 36.3385 18.0354 36.2842C18.1758 36.2203 18.3317 36.1312 18.5033 36.0169C19.1476 35.6402 19.7365 35.1469 20.27 34.5369C20.5177 34.2128 20.7108 33.8955 20.8494 33.5849C20.8711 33.5249 20.8922 33.4847 20.9126 33.4643C20.9235 33.4343 20.9296 33.3996 20.9309 33.36L20.9635 33.2701C20.9648 33.2306 20.9811 33.1856 21.0124 33.1352C21.0667 32.9853 21.1053 32.8606 21.1284 32.7612C21.1419 32.6521 21.1451 32.5533 21.1382 32.4647C21.1516 32.3556 21.1597 32.2616 21.1623 32.1825L21.2027 31.8554C21.2053 31.7763 21.2025 31.7122 21.1943 31.6631L21.2021 31.4259C21.2047 31.3469 21.1869 31.2882 21.1487 31.25C21.1309 31.1914 21.1233 31.1225 21.1259 31.0434L21.0667 29.6978L20.661 26.2904L20.5816 25.1084C20.5699 24.5658 20.5487 24.0136 20.5179 23.4519C20.5075 22.8698 20.5025 22.2727 20.503 21.6606L20.49 21.1575C20.4761 20.9802 20.4568 20.818 20.4321 20.6707C20.5997 20.6751 20.7722 20.6842 20.9495 20.698L21.4525 20.711C22.0646 20.7106 22.6515 20.7257 23.2132 20.7565C23.7954 20.7669 24.3577 20.7779 24.9003 20.7896L26.0824 20.869L29.4898 21.2747L30.8354 21.3339C30.9227 21.3804 31.0502 21.4058 31.2179 21.4101C31.2766 21.428 31.3454 21.4356 31.4245 21.4329C31.494 21.4208 31.5683 21.4134 31.6473 21.4108C31.7564 21.3973 31.8552 21.394 31.9438 21.401C32.0433 21.3779 32.1374 21.3699 32.226 21.3768L32.5531 21.3364C32.6526 21.3134 32.7773 21.2747 32.9272 21.2204C32.9776 21.1891 33.0225 21.1728 33.0621 21.1715L33.152 21.1389C33.1915 21.1376 33.2263 21.1315 33.2563 21.1207C33.2767 21.1002 33.3169 21.0792 33.3768 21.0574C33.6874 20.9188 34.0048 20.7257 34.3289 20.4781C34.9389 19.9445 35.4322 19.3556 35.8089 18.7114C35.9232 18.5398 36.0122 18.3838 36.0761 18.2435C36.1304 18.0936 36.1643 17.9641 36.1778 17.8551C36.2252 17.6166 36.1915 17.44 36.0768 17.3253C36.0099 17.2584 35.9424 17.2113 35.8742 17.1839Z" fill="#F3F4E9"/>
<path d="M1.12581 19.8161C1.18315 19.8734 1.25069 19.9206 1.32845 19.9575C1.4553 20.0026 1.59237 20.0376 1.73963 20.0624L1.96053 20.0995L15.6709 21.0681L16.0841 21.1136C16.1822 21.1301 16.2858 21.1317 16.3949 21.1182C16.5039 21.1047 16.6123 21.111 16.7201 21.1371C16.9464 21.1592 17.1686 21.1568 17.3867 21.1298C17.6647 21.0812 17.9182 21.0284 18.1472 20.9714C18.3461 20.9254 18.5818 20.8139 18.8542 20.6371C19.1879 20.399 19.5487 20.086 19.9367 19.698C20.3042 19.3304 20.607 18.9798 20.8451 18.6462C21.0219 18.3738 21.1334 18.1381 21.1795 17.9391L21.2811 17.5507C21.315 17.4213 21.334 17.2972 21.3379 17.1786C21.3648 16.9606 21.3672 16.7384 21.3451 16.512C21.319 16.4043 21.3127 16.2959 21.3262 16.1869C21.3397 16.0778 21.3382 15.9742 21.3217 15.876L21.2761 15.4629L20.3075 1.7525L20.2704 1.5316C20.2456 1.38433 20.2107 1.24727 20.1655 1.12042L20.0547 0.887144L19.8827 0.715125C19.768 0.600446 19.5915 0.56679 19.353 0.614161C19.2439 0.627636 19.1145 0.661532 18.9646 0.715847C18.8242 0.779718 18.6683 0.868788 18.4967 0.983055C17.8524 1.35975 17.2635 1.85309 16.73 2.46306C16.4823 2.78716 16.2892 3.10452 16.1506 3.41515C16.1289 3.4751 16.1078 3.51529 16.0874 3.53571C16.0765 3.56568 16.0704 3.60044 16.0691 3.63997L16.0365 3.7299C16.0352 3.76943 16.0189 3.81439 15.9876 3.86479C15.9333 4.01467 15.8947 4.13936 15.8716 4.23884C15.8581 4.34788 15.8549 4.44671 15.8618 4.53534C15.8484 4.64438 15.8403 4.73843 15.8377 4.8175L15.7973 5.14462C15.7947 5.22369 15.7975 5.28777 15.8057 5.33686L15.7979 5.57405C15.7953 5.65312 15.8131 5.71176 15.8513 5.74999C15.8691 5.80864 15.8767 5.87749 15.8741 5.95656L15.9333 7.30219L16.339 10.7096L16.4184 11.8916C16.4301 12.4342 16.4513 12.9864 16.4821 13.5481C16.4925 14.1302 16.4975 14.7273 16.497 15.3394L16.51 15.8425C16.5239 16.0198 16.5432 16.182 16.5679 16.3293C16.4003 16.3249 16.2278 16.3158 16.0505 16.302L15.5475 16.289C14.9354 16.2894 14.3485 16.2743 13.7868 16.2435C13.2046 16.2331 12.6423 16.2221 12.0997 16.2104L10.9176 16.131L7.51022 15.7253L6.16459 15.6661C6.07728 15.6196 5.94978 15.5942 5.78209 15.5899C5.72344 15.572 5.65459 15.5644 5.57552 15.5671C5.50601 15.5792 5.43173 15.5866 5.35266 15.5892C5.24362 15.6027 5.14478 15.606 5.05616 15.599C4.95668 15.6221 4.86263 15.6301 4.774 15.6232L4.44688 15.6636C4.34739 15.6866 4.22271 15.7253 4.07283 15.7796C4.02243 15.8109 3.97747 15.8272 3.93793 15.8285L3.848 15.8611C3.80847 15.8624 3.77372 15.8685 3.74374 15.8793C3.72332 15.8998 3.68314 15.9208 3.62318 15.9426C3.31256 16.0812 2.9952 16.2743 2.6711 16.5219C2.06112 17.0555 1.56779 17.6444 1.19109 18.2886C1.07682 18.4602 0.987752 18.6162 0.923881 18.7565C0.869566 18.9064 0.835673 19.0359 0.822198 19.1449C0.774827 19.3834 0.808479 19.56 0.923159 19.6747C0.990055 19.7416 1.05761 19.7887 1.12581 19.8161Z" fill="#F3F4E9"/>
</svg>
