<svg width="161" height="47" viewBox="0 0 161 47" fill="none" xmlns="http://www.w3.org/2000/svg">
<path d="M143.135 42.8681C142.799 43.3468 142.401 43.8276 141.942 44.3105C141.511 44.8115 140.954 45.093 140.27 45.1551C139.74 45.2308 139.237 45.1626 138.763 44.9506C138.288 44.7385 137.868 44.4387 137.502 44.0513C137.147 43.7112 136.843 43.3216 136.589 42.8827C136.354 42.4145 136.218 41.9476 136.183 41.4819C135.947 39.6417 135.802 37.8173 135.749 36.0087C135.742 34.189 135.721 32.3603 135.685 30.5226L135.44 22.6845C135.43 21.5891 135.445 20.388 135.485 19.0812C135.543 17.7452 135.542 16.4732 135.48 15.2652L125.015 31.9249L124.771 32.3193C124.483 32.7868 124.107 33.2001 123.643 33.5594C123.226 33.9074 122.729 34.1249 122.151 34.2118C121.714 34.2652 121.235 34.1915 120.714 33.9905C119.893 33.6858 119.306 33.2632 118.954 32.7229C118.631 32.2006 118.449 31.6448 118.41 31.0554C118.399 30.4841 118.498 29.8994 118.706 29.3013C118.961 28.6921 119.28 28.1426 119.663 27.6528L120.123 26.9078L122.32 23.5436L126.287 17.2161C126.893 16.2993 127.494 15.3588 128.089 14.3946C128.702 13.4013 129.325 12.3933 129.956 11.3708C130.702 10.0964 131.523 8.7671 132.418 7.38276C133.342 6.01645 134.212 4.7378 135.028 3.54679C135.501 2.91089 136.013 2.44036 136.565 2.13522C136.934 1.79833 137.457 1.63711 138.134 1.65154C138.582 1.64541 139.072 1.76643 139.605 2.01459C140.167 2.28078 140.611 2.57494 140.936 2.89704C141.046 3.04565 141.147 3.20886 141.239 3.38668C141.349 3.53529 141.45 3.6985 141.542 3.87633C141.616 4.08337 141.675 4.28138 141.72 4.47039C141.794 4.67743 141.844 4.89006 141.871 5.10828C141.927 5.34453 141.959 5.58638 141.968 5.83382C141.995 6.05204 142.021 6.27026 142.048 6.48848C142.027 6.71788 142.016 6.93267 142.013 7.13286C142.011 7.33304 142.023 7.54224 142.05 7.76046L142.099 8.75923L142.375 30.9603L144.161 28.0679C144.738 27.133 145.309 26.1745 145.875 25.1923C146.488 24.199 147.105 23.1674 147.725 22.0976C148.483 20.8705 149.294 19.5558 150.16 18.1534C151.055 16.769 151.91 15.4814 152.726 14.2904C153.033 13.7937 153.53 13.3142 154.219 12.8517C154.6 12.5621 155.038 12.4086 155.532 12.3913C156.027 12.374 156.521 12.4568 157.013 12.6397C157.506 12.8226 157.944 13.0931 158.328 13.4513C158.712 13.8094 158.984 14.2192 159.143 14.6805C159.176 14.8223 159.201 14.9786 159.216 15.1496C159.232 15.3206 159.224 15.4971 159.192 15.6793C159.104 16.1492 158.984 16.5393 158.833 16.8495C158.668 17.3127 158.486 17.7049 158.288 18.0263C156.034 21.6783 153.734 25.4034 151.39 29.2015C149.074 33.0176 146.804 36.7607 144.579 40.4307C144.326 40.8398 144.088 41.2578 143.865 41.6849C143.66 42.0827 143.416 42.4771 143.135 42.8681Z" fill="#F3F4E9"/>
<path d="M106.331 4.20378C108.631 3.34543 110.708 2.96775 112.562 3.07075C114.451 3.17376 116.133 3.65444 117.609 4.51279C119.086 5.33681 120.339 6.45268 121.369 7.86038C122.433 9.26808 123.292 10.8475 123.944 12.5985C124.459 13.9032 124.854 15.2766 125.129 16.7186C125.403 18.1607 125.558 19.6027 125.592 21.0447C125.661 22.4524 125.609 23.843 125.438 25.2163C125.3 26.5897 125.06 27.8601 124.717 29.0274C124.511 29.8171 124.27 30.5381 123.996 31.1905C123.721 31.8428 123.395 32.4952 123.017 33.1475C122.159 34.6239 121.043 35.8256 119.67 36.7526C118.33 37.6797 116.854 38.332 115.24 38.7097C114.142 38.9844 113.009 39.1217 111.841 39.1217C110.674 39.0874 109.524 38.9329 108.391 38.6582C107.258 38.3492 106.159 37.92 105.095 37.3707C104.065 36.787 103.12 36.066 102.262 35.2076C101.198 34.1776 100.322 32.993 99.6355 31.654C98.9488 30.2806 98.4166 28.8558 98.039 27.3794C97.6613 25.8687 97.4209 24.358 97.3179 22.8473C97.2149 21.3366 97.2149 19.8945 97.3179 18.5212C97.4209 17.2508 97.6613 15.8946 98.039 14.4526C98.451 13.0105 99.0347 11.62 99.79 10.2809C100.545 8.94191 101.455 7.74021 102.52 6.67585C103.618 5.57715 104.889 4.75313 106.331 4.20378ZM118.382 26.2464C118.794 24.6327 118.966 22.8129 118.897 20.7872C118.828 18.7615 118.502 16.8559 117.918 15.0706C117.541 13.9719 117.06 13.0105 116.476 12.1865C115.927 11.3281 115.258 10.6758 114.468 10.2294C113.713 9.7831 112.82 9.55992 111.79 9.55992C110.76 9.55992 109.61 9.86893 108.339 10.4869C107.584 10.8646 106.932 11.3796 106.382 12.032C105.867 12.6843 105.438 13.4225 105.095 14.2465C104.786 15.0706 104.528 15.9289 104.322 16.8216C104.15 17.7143 104.047 18.5727 104.013 19.3967C103.944 20.2894 103.927 21.2336 103.962 22.2293C103.996 23.1906 104.099 24.1691 104.271 25.1648C104.477 26.1262 104.751 27.0532 105.095 27.9459C105.438 28.8043 105.902 29.5768 106.485 30.2635C107.378 31.2935 108.408 32.0145 109.575 32.4265C110.777 32.8042 111.961 32.8557 113.129 32.581C115.017 32.169 116.459 30.9158 117.455 28.8214C117.867 28.0661 118.176 27.2077 118.382 26.2464Z" fill="#F3F4E9"/>
<path d="M76.5026 6.15834C76.9362 6.90859 77.3469 7.66662 77.7345 8.43245C78.1222 9.19828 78.5175 9.94872 78.9203 10.6838C80.7332 13.9915 82.5307 17.2916 84.3128 20.584C86.1101 23.8457 87.9382 27.1227 89.7971 30.4148C90.0252 29.953 90.2 29.599 90.3216 29.3527C90.4432 29.1064 90.5421 28.9063 90.6181 28.7524C90.7093 28.5677 90.8081 28.3676 90.9145 28.1521C91.0209 27.9366 91.196 27.6209 91.4396 27.2051C91.6524 26.7741 91.9413 26.1892 92.3061 25.4504C92.6862 24.6808 93.1879 23.6649 93.8112 22.4027C94.2065 21.6023 94.5941 20.8172 94.9742 20.0476C95.3694 19.2472 95.7955 18.462 96.2523 17.692C96.3591 17.5533 96.4735 17.3991 96.5955 17.2296C96.6868 17.0449 96.8012 16.8908 96.9387 16.7673L97.2141 16.5586C97.2141 16.5586 97.2905 16.4815 97.4433 16.3272C97.8412 16.0642 98.2395 15.8779 98.6382 15.7685C99.4667 15.6416 100.22 15.8605 100.899 16.4252C101.099 16.5624 101.261 16.7382 101.385 16.9526C101.493 17.1209 101.579 17.2971 101.641 17.4811C101.766 17.849 101.79 18.225 101.716 18.6093C101.733 19.0391 101.666 19.4464 101.514 19.831C101.469 20.0001 101.424 20.1692 101.379 20.3384C101.318 20.4615 101.249 20.6 101.173 20.754L92.8956 37.5164C92.8044 37.7012 92.7131 37.8859 92.6219 38.0706C92.5307 38.2553 92.4241 38.4324 92.3021 38.6019C92.2257 38.6791 92.1647 38.7638 92.1191 38.8562C92.0887 38.9177 92.0429 38.9717 91.9817 39.0181C91.8901 39.126 91.8139 39.2415 91.7531 39.3647C91.6767 39.4418 91.5851 39.5498 91.4783 39.6885C91.1264 39.9359 90.8278 40.114 90.5827 40.2227C90.1232 40.4553 89.7319 40.511 89.4089 40.3897L89.3627 40.3669C89.1784 40.3525 89.017 40.3302 88.8787 40.3002C88.7555 40.2394 88.6092 40.148 88.4397 40.026C88.4089 40.0108 88.3859 40.0186 88.3707 40.0494C88.3399 40.0342 88.2938 40.0114 88.2322 39.981C88.0475 39.8897 87.8934 39.7753 87.7698 39.6377C87.6155 39.485 87.4612 39.3322 87.3069 39.1794C87.245 39.0722 87.1754 38.9804 87.0983 38.904C87.0055 38.7817 86.9358 38.6515 86.8891 38.5135C86.7655 38.3759 86.6496 38.223 86.5413 38.0546C86.4482 37.8554 86.3399 37.6871 86.2163 37.5495C86.1236 37.4271 86.0309 37.3047 85.9381 37.1823C85.8298 37.014 85.7447 36.8762 85.6827 36.769C85.6204 36.5851 85.5583 36.4395 85.4963 36.3323C85.4188 36.1792 85.3337 36.0414 85.2409 35.919L83.0557 31.8531L78.9425 24.48C78.3842 23.3619 77.7875 22.2439 77.1524 21.1262C76.5018 19.9624 75.8279 18.7681 75.1309 17.5431C74.5889 16.6245 74.1319 15.8053 73.7598 15.0854C73.357 14.3504 72.9231 13.5618 72.4583 12.7196C71.9262 13.797 71.4245 14.8129 70.9533 15.7673C70.4972 16.6908 70.0411 17.6144 69.585 18.5379C69.0982 19.4463 68.6039 20.4084 68.1022 21.4243C67.5849 22.3942 67.0144 23.4719 66.3908 24.6573C66.1471 25.0731 65.8347 25.5507 65.4535 26.09C65.0567 26.5833 64.5978 26.931 64.0767 27.1332C63.6017 27.3198 63.1796 27.3603 62.8106 27.2547C62.4571 27.195 62.0649 27.0587 61.6339 26.8459C61.1413 26.6027 60.7787 26.2513 60.5461 25.7918C60.298 25.2863 60.1955 24.7571 60.2389 24.2041C60.3118 23.436 60.5004 22.7441 60.8044 22.1284C60.9409 21.7745 61.0927 21.4283 61.2599 21.0897C61.4271 20.751 61.556 20.4126 61.6464 20.0743L61.7605 19.8434C62.1706 18.9355 62.8243 17.6117 63.7216 15.8721C64.6034 14.0866 65.7055 11.8547 67.0282 9.1764C67.1954 8.83776 67.3702 8.48373 67.5527 8.11431C67.7043 7.72969 67.8791 7.37566 68.0771 7.05223C68.4884 6.37458 68.8686 5.64334 69.2179 4.85851C69.5824 4.04289 70.109 3.40306 70.7977 2.939C70.9812 2.7999 71.1726 2.68379 71.3717 2.59068C71.5709 2.49756 71.7623 2.38146 71.9458 2.24235C72.4669 2.04016 72.9507 2.06847 73.3973 2.3273C73.8591 2.55534 74.283 2.89872 74.6692 3.35746C75.0705 3.78541 75.4261 4.26733 75.7358 4.80322C76.0456 5.33911 76.3011 5.79082 76.5026 6.15834Z" fill="#F3F4E9"/>
<path d="M63.156 35.9286C63.1903 36.1346 63.2075 36.3406 63.2075 36.5466C63.2418 36.7183 63.259 36.9243 63.259 37.1646C63.259 37.5767 63.1388 37.9543 62.8985 38.2977C62.7955 38.4693 62.6581 38.641 62.4865 38.8127C62.3148 38.95 62.1088 39.0702 61.8684 39.1732C61.0101 39.6539 60.1002 39.8255 59.1389 39.6882C58.6582 39.5509 58.229 39.3277 57.8513 39.0187C57.7827 38.95 57.7312 38.9157 57.6968 38.9157C57.6625 38.8814 57.6282 38.8299 57.5938 38.7612C57.5595 38.7268 57.5252 38.6925 57.4908 38.6582C57.4565 38.5895 57.405 38.538 57.3363 38.5037C57.1646 38.332 57.0273 38.1775 56.9243 38.0402C56.8213 37.8685 56.7183 37.6968 56.6153 37.5252C56.5466 37.3535 56.4608 37.199 56.3578 37.0616C56.2891 36.89 56.2033 36.7183 56.1003 36.5466C56.0316 36.4093 55.9629 36.2891 55.8943 36.1861C55.8256 36.0488 55.7741 35.9114 55.7398 35.7741C55.6024 35.4651 55.5166 35.1904 55.4823 34.9501L54.4007 32.4265C52.0317 32.4265 49.6626 32.4437 47.2936 32.478C44.9588 32.478 42.6069 32.4608 40.2379 32.4265L39.1563 34.9501C39.0877 35.0874 39.0362 35.2248 39.0018 35.3621C39.0018 35.4994 38.9675 35.6368 38.8988 35.7741C38.8302 35.9114 38.7615 36.0488 38.6928 36.1861C38.6585 36.2891 38.607 36.4093 38.5383 36.5466C38.4353 36.7183 38.3323 36.89 38.2293 37.0616C38.1606 37.199 38.0748 37.3535 37.9718 37.5252C37.9031 37.6968 37.8173 37.8685 37.7143 38.0402C37.6113 38.1775 37.474 38.332 37.3023 38.5037C37.2336 38.538 37.1821 38.5895 37.1478 38.6582C37.1135 38.6925 37.0791 38.7268 37.0448 38.7612C37.0105 38.8299 36.9761 38.8814 36.9418 38.9157C36.9074 38.9157 36.8559 38.95 36.7873 39.0187C36.4096 39.3277 35.9804 39.5509 35.4997 39.6882C34.5384 39.8255 33.6285 39.6539 32.7702 39.1732C32.5298 39.0702 32.3238 38.95 32.1522 38.8127C31.9805 38.641 31.8431 38.4693 31.7401 38.2977C31.4998 37.9543 31.3796 37.5767 31.3796 37.1646C31.3796 36.9243 31.3796 36.7183 31.3796 36.5466C31.414 36.3406 31.4483 36.1346 31.4826 35.9286C31.5513 35.6196 31.6371 35.3106 31.7401 35.0016C31.8431 34.6926 31.8947 34.5381 31.8947 34.5381L42.6069 8.16938L42.9159 7.34536C42.9846 7.13935 43.0704 6.95051 43.1734 6.77884C43.2765 6.60717 43.3623 6.40116 43.431 6.16083C43.6026 5.71448 43.7915 5.31964 43.9975 4.97629C44.1005 4.77029 44.2206 4.58145 44.358 4.40978C44.4953 4.23811 44.6327 4.06644 44.77 3.89476C44.976 3.62009 45.2678 3.39692 45.6455 3.22525C46.1262 3.05358 46.6755 2.96774 47.2936 2.96774C47.9459 2.96774 48.5124 3.05358 48.9931 3.22525C49.3708 3.39692 49.6626 3.62009 49.8686 3.89476C50.109 4.20377 50.3665 4.56428 50.6411 4.97629C50.8471 5.31964 51.036 5.71448 51.2077 6.16083C51.2763 6.40116 51.3622 6.60717 51.4652 6.77884C51.5682 6.95051 51.654 7.13935 51.7227 7.34536L52.0317 8.16938L62.744 34.5381C62.744 34.5381 62.7955 34.6926 62.8985 35.0016C63.0015 35.3106 63.0873 35.6196 63.156 35.9286ZM50.9502 23.3108C50.5038 22.3151 50.0403 21.2851 49.5596 20.2207C49.1133 19.1563 48.6326 18.0748 48.1176 16.9761C47.9802 16.6671 47.8429 16.3581 47.7056 16.0491C47.5682 15.7057 47.4309 15.3796 47.2936 15.0706C47.1906 15.3796 47.0704 15.7057 46.933 16.0491C46.7957 16.3581 46.6584 16.6671 46.521 16.9761C46.006 18.0748 45.5082 19.1563 45.0275 20.2207C44.5812 21.2851 44.1348 22.3151 43.6885 23.3108L42.7614 25.5768H51.8772L50.9502 23.3108Z" fill="#F3F4E9"/>
<path d="M27.2403 27.1734C27.2403 28.2034 27.1888 29.2506 27.0858 30.315C26.9827 31.345 26.7767 32.3579 26.4677 33.3536C26.1587 34.3149 25.6952 35.242 25.0772 36.1347C24.4592 36.993 23.618 37.7484 22.5536 38.4007C22.0386 38.7441 21.4206 39.0359 20.6996 39.2762C20.0129 39.4822 19.2747 39.6539 18.485 39.7912C17.7297 39.9629 16.9743 40.0659 16.219 40.1003C15.4636 40.1689 14.7598 40.1861 14.1074 40.1518C11.0173 40.0488 8.51093 39.3106 6.58821 37.9372C4.69983 36.5295 3.24062 34.7956 2.2106 32.7356C1.2149 30.6755 0.562553 28.4438 0.253545 26.0404C-0.0211288 23.6027 -0.0726301 21.2851 0.0990411 19.0877C0.202044 17.783 0.425216 16.3753 0.768559 14.8646C1.14624 13.3539 1.67842 11.8947 2.3651 10.487C3.08612 9.07927 3.96164 7.80891 4.99167 6.67588C6.05603 5.54285 7.30923 4.68449 8.75127 4.10081C10.0903 3.55146 11.5495 3.20812 13.1289 3.07078C14.7426 2.89911 16.322 2.95061 17.867 3.22529C19.4464 3.49996 20.9056 3.99781 22.2446 4.71883C23.618 5.43984 24.6995 6.4012 25.4892 7.6029C26.0386 8.49559 26.4677 9.57712 26.7767 10.8475C27.0858 12.1179 27.1373 13.3367 26.9312 14.5041C26.7596 15.5341 26.3991 16.2551 25.8497 16.6671C25.3004 17.0448 24.6995 17.1993 24.0472 17.1307C23.3948 17.0276 22.7596 16.753 22.1416 16.3066C21.5579 15.826 21.1631 15.2251 20.9571 14.5041C20.7168 13.7144 20.4249 12.9934 20.0816 12.341C19.7382 11.6543 19.206 11.0878 18.485 10.6415C17.661 10.1265 16.7855 9.83463 15.8585 9.76596C14.9658 9.69729 14.0902 9.80029 13.2319 10.075C12.4079 10.3496 11.6182 10.7788 10.8628 11.3625C10.1418 11.9462 9.54096 12.6157 9.06028 13.3711C8.47659 14.2294 8.03025 15.1736 7.72124 16.2036C7.41223 17.1993 7.18906 18.2465 7.05172 19.3452C6.91439 20.4096 6.86289 21.4911 6.89722 22.5898C6.96589 23.6542 7.10323 24.6842 7.30923 25.6799C7.68691 27.3623 8.27059 28.9416 9.06028 30.418C9.36928 30.9673 9.7813 31.4652 10.2963 31.9115C10.8457 32.3235 11.4465 32.6669 12.0989 32.9416C12.7512 33.1819 13.4379 33.3364 14.1589 33.4051C14.8799 33.4737 15.5666 33.4222 16.219 33.2506C17.146 33.0102 17.9013 32.7012 18.485 32.3235C19.0687 31.9115 19.5322 31.4309 19.8756 30.8815C20.2189 30.3322 20.4421 29.7313 20.5451 29.079C20.6824 28.4266 20.7511 27.7399 20.7511 27.0189V26.9674C20.3047 26.9674 19.9099 26.9674 19.5666 26.9674C19.2232 26.9331 18.9657 26.9159 18.794 26.9159C18.0387 26.9159 17.3005 26.7786 16.5795 26.5039C15.9615 26.2979 15.4979 25.9717 15.1889 25.5254C14.8456 25.1477 14.6739 24.6842 14.6739 24.1348C14.6739 23.9288 14.6739 23.74 14.6739 23.5683C14.7083 23.3623 14.7426 23.1563 14.7769 22.9503C14.8799 22.6756 15.1031 22.3323 15.4464 21.9203C15.6525 21.7486 15.9786 21.6113 16.425 21.5083C16.631 21.4396 16.837 21.3881 17.043 21.3538C17.249 21.2851 17.4893 21.2336 17.764 21.1993C17.97 21.1649 18.1932 21.1478 18.4335 21.1478C18.6739 21.1478 18.9142 21.1478 19.1545 21.1478H23.8412C24.2188 21.1134 24.648 21.1649 25.1287 21.3023C25.6437 21.4053 26.0386 21.5769 26.3132 21.8173C26.4162 21.9546 26.5192 22.0919 26.6222 22.2293C26.7252 22.3666 26.8111 22.5211 26.8797 22.6928C27.0171 23.0705 27.1029 23.4482 27.1373 23.8258C27.1716 24.0318 27.1888 24.255 27.1888 24.4953C27.2231 24.7013 27.2403 24.8902 27.2403 25.0619V27.1734Z" fill="#F3F4E9"/>
</svg>
