<svg width="28" height="37" viewBox="0 0 28 37" fill="none" xmlns="http://www.w3.org/2000/svg">
<path d="M8.40596 13.9192C8.40318 13.9199 8.4004 13.9207 8.39762 13.9215C7.97846 14.0393 7.6483 14.197 7.40714 14.3945C7.03013 14.6824 6.82796 14.984 6.80063 15.2993C6.65745 15.6793 6.6212 16.1182 6.69185 16.6159C6.86262 17.5175 7.04921 18.4828 7.25161 19.512C7.47928 20.5367 7.71906 21.5038 7.97094 22.4134L8.51636 24.6133C8.69026 25.3147 8.84888 26.0078 8.99224 26.6924L9.2827 27.9057L11.0708 34.8449L11.142 35.1318C11.2263 35.4719 11.3864 35.7987 11.6224 36.1122C11.8278 36.4089 12.1238 36.6453 12.5104 36.8215C12.8053 36.9472 13.1629 37.0065 13.5832 36.9994C13.7733 36.9981 13.9521 36.9868 14.1197 36.9654C14.2834 36.9287 14.4528 36.879 14.6277 36.8163C15.0163 36.6816 15.316 36.5071 15.5266 36.2927C15.7972 36.0013 15.9562 35.6851 16.0035 35.3441C16.0709 34.9774 16.0624 34.6241 15.9781 34.284L15.9069 33.997L14.2486 27.0352L13.9383 25.8253C13.7444 25.1495 13.5605 24.4609 13.3866 23.7595L12.8411 21.5595C12.6398 20.6411 12.4 19.674 12.1218 18.6582C11.8183 17.6468 11.5306 16.6991 11.2587 15.8152C11.087 15.3352 10.8452 14.9451 10.5334 14.6449C10.3585 14.3651 10.0299 14.1565 9.54745 14.0193C9.23252 13.9193 8.85493 13.8856 8.41469 13.9185C8.41178 13.9187 8.40887 13.9189 8.40596 13.9192Z" fill="#F3F4E9"/>
<path d="M19.6891 13.7557C19.6862 13.7555 19.6832 13.7552 19.6803 13.7549C19.2405 13.7184 18.8625 13.7488 18.5464 13.8462C18.0624 13.9794 17.7313 14.1851 17.5531 14.4635C17.2377 14.761 16.9913 15.1491 16.8138 15.6276C16.5314 16.5092 16.2324 17.4543 15.9168 18.4631C15.6265 19.4765 15.3752 20.4416 15.1629 21.3583L14.5913 23.5535C14.409 24.2534 14.2169 24.9404 14.0149 25.6145L13.6902 26.8217L11.9489 33.7693L11.8743 34.0556C11.786 34.395 11.7733 34.7483 11.8362 35.1155C11.8795 35.4568 12.0347 35.7744 12.3019 36.0681C12.5099 36.2842 12.8074 36.4612 13.1944 36.5992C13.3686 36.6633 13.5373 36.7145 13.7006 36.7525C13.8679 36.7753 14.0466 36.7882 14.2367 36.7911C14.6569 36.8018 15.0151 36.7455 15.3115 36.6223C15.7002 36.4493 15.999 36.2154 16.208 35.9205C16.4477 35.609 16.6117 35.2836 16.7001 34.9442L16.7746 34.6579L18.6455 27.7343L18.9504 26.5233C19.1019 25.84 19.2688 25.1483 19.4511 24.4484L20.0227 22.2531C20.2854 21.3458 20.5367 20.3807 20.7766 19.358C20.9913 18.3306 21.1894 17.3669 21.3709 16.4668C21.4475 15.9696 21.4165 15.5305 21.2778 15.1493C21.2543 14.8338 21.0557 14.5305 20.6822 14.2395C20.4434 14.0399 20.1151 13.8795 19.6974 13.7581C19.6946 13.7573 19.6918 13.7565 19.6891 13.7557Z" fill="#F3F4E9"/>
<path d="M24.7756 15.9515C24.1548 16.2961 23.5122 16.5582 22.8478 16.7378C22.2501 16.8938 21.6441 17.0083 21.0299 17.0812C20.4376 17.1309 19.8611 17.1141 19.3005 17.0309C18.5258 16.9223 17.9836 16.6944 17.6738 16.347C17.3897 15.9996 17.2736 15.6196 17.3252 15.207C17.4027 14.7945 17.6092 14.3928 17.9449 14.002C18.3064 13.6329 18.7582 13.3832 19.3005 13.2529C19.8943 13.1009 20.4366 12.9164 20.9271 12.6992C21.4435 12.4821 21.8696 12.1456 22.2052 11.6896C22.5925 11.1685 22.812 10.6148 22.8637 10.0286C22.8713 9.94508 22.8761 9.86179 22.8781 9.77874C22.9158 9.51215 22.9186 9.23719 22.8865 8.95383C22.8349 8.49786 22.7187 8.06361 22.538 7.65107C22.3314 7.23853 22.0732 6.85856 21.7633 6.51116C21.4277 6.18547 21.0533 5.92492 20.6402 5.72951C19.5299 5.23012 18.3422 4.86101 17.077 4.62217C16.3282 4.49189 15.5536 4.40504 14.7531 4.36162C14.4963 4.35487 14.2408 4.35337 13.9864 4.3571C13.7321 4.35337 13.4766 4.35487 13.2198 4.36162C12.4193 4.40504 11.6447 4.49189 10.8959 4.62217C9.63073 4.86101 8.443 5.23012 7.33272 5.72951C6.9196 5.92492 6.5452 6.18547 6.20954 6.51116C5.89969 6.85856 5.64149 7.23853 5.43492 7.65107C5.25418 8.06361 5.13799 8.49786 5.08635 8.95383C5.05426 9.23719 5.05707 9.51216 5.09478 9.77875C5.09677 9.8618 5.10158 9.94508 5.10922 10.0286C5.16086 10.6148 5.38034 11.1685 5.76764 11.6896C6.10331 12.1456 6.52934 12.4821 7.04575 12.6992C7.53633 12.9164 8.07856 13.1009 8.67243 13.2529C9.21466 13.3832 9.66652 13.6329 10.028 14.002C10.3637 14.3928 10.5702 14.7945 10.6477 15.207C10.6993 15.6196 10.5831 15.9996 10.2991 16.347C9.98927 16.6944 9.44704 16.9223 8.67243 17.0309C8.11175 17.1141 7.53527 17.1309 6.94299 17.0812C6.32879 17.0083 5.72282 16.8938 5.12508 16.7378C4.46067 16.5582 3.81806 16.2961 3.19726 15.9515C2.42542 15.4703 1.79755 14.8422 1.31363 14.0671C0.853545 13.3486 0.514294 12.5754 0.295878 11.7475C0.291802 11.7282 0.287764 11.7089 0.283765 11.6896C0.259943 11.6015 0.23788 11.5133 0.217574 11.4252C0.208231 11.3832 0.199189 11.3411 0.190446 11.2988C0.174819 11.2249 0.160151 11.1508 0.146445 11.0766C0.0978459 10.8033 0.0661587 10.5299 0.0513827 10.2566C0.0193872 9.96062 0.00225975 9.67717 0 9.40621C0.00259439 9.04116 0.0273456 8.67324 0.0742537 8.30245C0.177535 7.30367 0.435738 6.38089 0.848863 5.5341C1.28781 4.62217 1.93332 3.82966 2.78539 3.15657C3.63746 2.5052 4.59281 1.95152 5.65145 1.49556C6.71008 1.06131 7.80745 0.724765 8.94354 0.485926C10.0796 0.268801 11.1383 0.127669 12.1194 0.0625312C12.7295 0.0224555 13.3518 0.00161177 13.9864 0C14.6211 0.00161177 15.2434 0.0224555 15.8534 0.0625312C16.8346 0.127669 17.8932 0.268801 19.0293 0.485926C20.1654 0.724765 21.2628 1.06131 22.3214 1.49556C23.3801 1.95152 24.3354 2.5052 25.1875 3.15657C26.0396 3.82966 26.6851 4.62217 27.124 5.5341C27.5371 6.38089 27.7953 7.30367 27.8986 8.30245C27.9456 8.67346 27.9703 9.04159 27.9729 9.40686C27.9706 9.67762 27.9535 9.96086 27.9215 10.2566C27.9067 10.5302 27.875 10.8038 27.8263 11.0774C27.8126 11.1513 27.798 11.2251 27.7824 11.2988C27.7737 11.341 27.7647 11.3831 27.7553 11.4251C27.735 11.5133 27.7129 11.6014 27.6891 11.6896C27.6851 11.7089 27.6811 11.7282 27.677 11.7475C27.4586 12.5754 27.1193 13.3486 26.6593 14.0671C26.1753 14.8422 25.5475 15.4703 24.7756 15.9515Z" fill="#F3F4E9"/>
</svg>
