<svg width="30" height="38" viewBox="0 0 30 38" fill="none" xmlns="http://www.w3.org/2000/svg">
<path d="M27.2894 6.53259C27.9169 8.18579 28.193 14.3845 28.1177 15.7169C28.0424 17.074 27.691 18.2831 27.0635 19.3441C26.4612 20.4051 25.6455 21.3057 24.6165 22.0459C23.5875 22.8109 22.433 23.4277 21.153 23.8965C20.1992 24.2667 19.1953 24.5504 18.1412 24.7478C17.0871 24.9452 16.033 25.0562 14.9788 25.0809C13.9498 25.1303 12.9333 25.0933 11.9294 24.9699C10.9255 24.8712 9.99687 24.6985 9.14354 24.4517C8.56628 24.3037 8.03923 24.1309 7.56236 23.9335C7.0855 23.7361 6.60864 23.5017 6.13177 23.2303C5.05256 22.6135 4.17413 21.8115 3.49648 20.8245C2.81883 19.8622 2.34197 18.8012 2.06589 17.6415C1.86511 16.8519 1.76471 16.0377 1.76471 15.1987C1.78981 14.3598 1.90275 8.82733 2.10354 8.01306C2.32942 7.1988 2.64315 6.40922 3.04472 5.64431C3.47138 4.90407 3.99844 4.22552 4.62589 3.60865C5.37883 2.84374 6.24472 2.21454 7.22354 1.72105C8.22746 1.22756 9.26903 0.845101 10.3482 0.573681C11.4526 0.302261 12.5569 0.129541 13.6612 0.0555172C14.7655 -0.0185065 15.8196 -0.0185065 16.8235 0.0555173C17.7522 0.129541 18.7435 0.302261 19.7977 0.573681C20.8518 0.869776 21.8682 1.28925 22.8471 1.83209C23.8259 2.37493 24.7043 3.02881 25.4824 3.79372C26.2855 4.58331 26.8879 5.49626 27.2894 6.53259ZM11.1765 19.8992C12.3561 20.1953 13.6863 20.3187 15.1671 20.2694C16.6479 20.22 18.0408 19.9856 19.3459 19.5661C20.149 19.2947 20.8518 18.9493 21.4541 18.5298C22.0816 18.135 22.5584 17.6539 22.8847 17.0863C23.211 16.5435 23.3741 15.902 23.3741 15.1617C23.3741 14.4215 23.1482 8.88902 22.6965 7.97606C22.4204 7.43322 22.0439 6.96439 21.5671 6.5696C21.0902 6.19948 20.5506 5.89106 19.9482 5.64431C19.3459 5.42224 18.7184 5.23718 18.0659 5.08913C17.4133 4.96576 16.7859 4.89173 16.1835 4.86705C15.531 4.81771 14.8408 4.80537 14.113 4.83005C13.4102 4.85472 12.6949 4.92875 11.9671 5.05212C11.2643 5.20017 10.5867 5.39756 9.93413 5.64431C9.30668 5.89105 8.74197 6.22416 8.24001 6.64363C7.48707 7.28517 6.96001 8.0254 6.65883 8.86434C6.38276 9.72795 6.34511 15.2851 6.54589 16.124C6.84707 17.4811 7.76315 18.5175 9.29413 19.233C9.84628 19.5291 10.4737 19.7512 11.1765 19.8992Z" fill="#F3F4E9"/>
<path d="M29.9515 35.9654C29.9515 35.8746 29.9354 35.7839 29.9031 35.6932C29.8385 35.5571 29.7577 35.421 29.6607 35.2849L29.5153 35.0807L19.4346 23.4674L19.1438 23.1045C19.0792 23.0137 18.9984 22.9306 18.9015 22.8549C18.8045 22.7793 18.7237 22.6886 18.6591 22.5828C18.4976 22.3862 18.3199 22.2123 18.126 22.0611C17.8675 21.8796 17.6252 21.7208 17.399 21.5847C17.2052 21.4638 16.9305 21.3655 16.5751 21.2899C16.1228 21.2143 15.5897 21.1765 14.9758 21.1765C14.3942 21.1765 13.8772 21.2143 13.4249 21.2899C13.0695 21.3655 12.7948 21.4638 12.601 21.5847L12.2132 21.8116C12.084 21.8872 11.9709 21.9703 11.874 22.0611C11.6801 22.2123 11.5024 22.3862 11.3409 22.5828C11.2763 22.6886 11.1955 22.7793 11.0985 22.8549C11.0016 22.9306 10.9208 23.0137 10.8562 23.1045L10.5654 23.4674L0.484652 35.0807L0.339255 35.2849C0.242325 35.421 0.16155 35.5571 0.0969293 35.6932L0 35.9654V36.2375C0 36.419 0.113084 36.5853 0.339255 36.7366C0.436186 36.8122 0.565427 36.8878 0.726978 36.9634C0.888529 37.0239 1.08239 37.0768 1.30856 37.1222C2.11632 37.3339 2.97254 37.4095 3.87722 37.349C4.32956 37.2885 4.73344 37.1902 5.08885 37.0541C5.15347 37.0239 5.20194 37.0087 5.23425 37.0087C5.26656 36.9936 5.29887 36.9709 5.33118 36.9407L5.42811 36.8953C5.46042 36.8651 5.50888 36.8424 5.5735 36.8273C5.73505 36.7517 5.8643 36.6836 5.96123 36.6231C6.05816 36.5475 6.13893 36.4719 6.20355 36.3963C6.30048 36.3207 6.38126 36.2527 6.44588 36.1922L6.73667 35.9654C6.80129 35.9049 6.84976 35.8519 6.88207 35.8066L7.07593 35.6251C7.14055 35.5646 7.17286 35.5041 7.17286 35.4437C7.20517 35.3832 7.25363 35.3227 7.31825 35.2622L8.33602 34.1508L10.7108 31.134L11.5832 30.136C12.0032 29.6975 12.4233 29.2438 12.8433 28.775C13.2956 28.3063 13.7641 27.8299 14.2488 27.3461L14.6365 26.9378C14.7657 26.7866 14.8788 26.6429 14.9758 26.5068C15.105 26.6429 15.2342 26.7866 15.3635 26.9378L15.7512 27.3461C16.2359 27.8299 16.6882 28.3063 17.1082 28.775C17.5606 29.2438 17.9968 29.6975 18.4168 30.136L19.2892 31.134L21.664 34.1508L22.6817 35.2622C22.7141 35.3681 22.7948 35.489 22.9241 35.6251C22.9564 35.6856 23.0048 35.7461 23.0695 35.8066C23.1341 35.8519 23.1987 35.9049 23.2633 35.9654C23.3603 36.041 23.441 36.1166 23.5057 36.1922C23.6026 36.2527 23.6834 36.3207 23.748 36.3963L24.0388 36.6231C24.1357 36.6836 24.2649 36.7517 24.4265 36.8273C24.4911 36.8424 24.5396 36.8651 24.5719 36.8953L24.6688 36.9407C24.7011 36.9709 24.7334 36.9936 24.7657 37.0087C24.7981 37.0087 24.8465 37.0239 24.9111 37.0541C25.2666 37.1902 25.6704 37.2885 26.1228 37.349C27.0275 37.4095 27.8837 37.3339 28.6914 37.1222C28.9176 37.0768 29.1115 37.0239 29.273 36.9634C29.4346 36.8878 29.5638 36.8122 29.6607 36.7366C29.8869 36.5853 30 36.419 30 36.2375C30 36.1317 29.9838 36.041 29.9515 35.9654Z" fill="#F3F4E9"/>
</svg>
