<svg width="40" height="40" viewBox="0 0 40 40" fill="none" xmlns="http://www.w3.org/2000/svg">
<path d="M18.7689 4.37325C20.116 4.98913 24.2518 8.80816 24.9986 9.64401C25.7601 10.4945 26.2726 11.4183 26.5362 12.4155C26.8144 13.398 26.873 14.4098 26.7119 15.4509C26.5655 16.5067 26.2579 17.5479 25.7894 18.5743C25.4526 19.3515 25.0352 20.1067 24.5374 20.8399C24.0395 21.5731 23.4904 22.255 22.89 22.8855C22.3189 23.5161 21.7039 24.088 21.045 24.6012C20.4007 25.1291 19.7564 25.569 19.1121 25.9209C18.6874 26.1702 18.2774 26.3755 17.882 26.5368C17.4867 26.6981 17.0693 26.8374 16.6301 26.9547C15.6343 27.2187 14.6459 27.2554 13.6648 27.0647C12.6984 26.8888 11.7905 26.5368 10.9412 26.0089C10.3555 25.657 9.81366 25.2317 9.31579 24.7332C8.83257 24.2199 5.31912 20.5695 4.95304 19.9683C4.60161 19.3524 4.31607 18.6999 4.09642 18.0107C3.90606 17.3215 3.81088 16.6103 3.81088 15.8771C3.79624 14.9826 3.92802 14.1027 4.20625 13.2376C4.49911 12.3577 4.87983 11.5219 5.34841 10.73C5.83164 9.92353 6.37344 9.17568 6.97381 8.48647C7.57418 7.79727 8.18919 7.18139 8.81885 6.63882C9.40457 6.14025 10.0855 5.66367 10.8616 5.20909C11.6523 4.76917 12.4943 4.42457 13.3875 4.17528C14.2807 3.926 15.1813 3.80136 16.0892 3.80136C17.0263 3.80136 17.9196 3.99199 18.7689 4.37325ZM17.5965 22.0277C18.4605 21.5144 19.3098 20.8106 20.1444 19.9161C20.9791 19.0216 21.6527 18.0684 22.1652 17.0566C22.4727 16.4261 22.6777 15.8102 22.7802 15.209C22.912 14.6077 22.9047 14.0432 22.7582 13.5153C22.6264 13.002 22.3409 12.5255 21.9016 12.0855C21.4623 11.6456 17.7512 8.19319 16.9458 7.91458C16.4626 7.75328 15.9647 7.69462 15.4522 7.73861C14.9543 7.79727 14.4565 7.92925 13.9586 8.13454C13.4754 8.3545 12.9995 8.61111 12.5309 8.90439C12.0769 9.21233 11.6669 9.53494 11.3009 9.87221C10.8909 10.2241 10.4808 10.6201 10.0708 11.06C9.67547 11.4852 9.30207 11.9472 8.95063 12.4457C8.62848 12.9443 8.35026 13.4575 8.11597 13.9854C7.89633 14.4987 7.76454 15.0266 7.72061 15.5691C7.66203 16.3903 7.79382 17.1382 8.11597 17.8127C8.46741 18.4873 12.0394 22.1083 12.6544 22.4896C13.6355 23.1201 14.785 23.2008 16.1029 22.7315C16.6008 22.5849 17.0986 22.3503 17.5965 22.0277Z" fill="#83D128"/>
<path fill-rule="evenodd" clip-rule="evenodd" d="M31.7098 32.1073C31.6777 32.1265 31.6448 32.1434 31.6111 32.1579L31.3912 32.268C31.3075 32.2972 31.2206 32.3182 31.1306 32.3311C30.7939 32.3751 30.4717 32.3311 30.1642 32.1991C29.7395 32.0085 29.3808 31.7665 29.0879 31.4732C28.9122 31.3266 28.7438 31.1726 28.5827 31.0113C28.4217 30.85 28.2533 30.7107 28.0775 30.5934L27.9677 30.4834C27.6444 30.1812 27.2179 29.7598 26.6883 29.2193C26.7038 29.2163 26.7194 29.2134 26.7349 29.2104L26.2297 28.7045L25.9442 28.4186L25.6586 28.1326C25.5561 28.03 25.4097 27.8687 25.2193 27.6487L24.3847 26.8129L22.935 25.3611L21.8148 24.2393C21.4341 23.8581 21.068 23.4622 20.7166 23.0516C20.658 22.9636 20.5921 22.8683 20.5189 22.7656C20.431 22.6776 20.3651 22.5823 20.3212 22.4797L20.2553 22.2817L20.1675 22.1057C20.0942 21.8271 20.065 21.5632 20.0796 21.3139C20.1675 20.8153 20.4384 20.4267 20.8923 20.1481C21.0094 20.0601 21.1412 20.0015 21.2877 19.9722C21.4048 19.9428 21.5219 19.9282 21.6391 19.9282C21.8734 19.9282 22.093 19.9868 22.298 20.1041C22.547 20.1774 22.7666 20.2948 22.957 20.4561L23.2206 20.632L23.4182 20.83L31.3914 28.8145L31.655 29.0784C31.7429 29.1664 31.8234 29.2617 31.8966 29.3644C31.9259 29.423 31.9625 29.4744 32.0065 29.5184C32.0357 29.5477 32.0577 29.5843 32.0724 29.6283C32.1163 29.7017 32.1675 29.7676 32.2261 29.8263C32.2554 29.8849 32.2993 29.9583 32.3579 30.0463C32.4311 30.2955 32.475 30.5008 32.4897 30.6621C32.5336 30.9701 32.4897 31.2047 32.3579 31.366L32.3359 31.388C32.3126 31.4426 32.2892 31.4931 32.2658 31.5394C32.2177 31.6062 32.1636 31.6739 32.1035 31.7424C32.0624 31.7763 32.0154 31.8121 31.9625 31.8499C31.9479 31.8646 31.9479 31.8792 31.9625 31.8939C31.959 31.8973 31.9556 31.9008 31.9521 31.9043L31.9375 31.9189C31.8651 31.9908 31.7892 32.0536 31.7098 32.1073Z" fill="#83D128"/>
</svg>
