<svg width="91" height="89" viewBox="0 0 91 89" fill="none" xmlns="http://www.w3.org/2000/svg">
<path d="M86.9487 58.9573C87.3457 59.3692 87.738 59.8504 88.1256 60.4011C88.5327 60.9204 88.7275 61.5649 88.71 62.3346C88.7213 62.9343 88.6055 63.4914 88.3624 64.0059C88.1194 64.5204 87.8028 64.9678 87.4127 65.3479C87.0666 65.7192 86.6813 66.03 86.2567 66.2804C85.8076 66.5084 85.3704 66.6246 84.9451 66.6288C83.2541 66.7533 81.5872 66.7771 79.9446 66.7002C78.2969 66.5695 76.6395 66.4546 74.9723 66.3553L67.8517 66.0362C66.8592 65.9641 65.7737 65.8562 64.5953 65.7124C63.3923 65.5462 62.2409 65.4517 61.141 65.4287L75.092 78.3979L75.4227 78.7001C75.8147 79.0583 76.1483 79.5105 76.4235 80.0566C76.6936 80.549 76.8369 81.1219 76.8533 81.7752C76.8546 82.2675 76.7362 82.7977 76.4982 83.366C76.1339 84.2608 75.6883 84.8848 75.1613 85.2381C74.6538 85.5601 74.1311 85.7209 73.5934 85.7206C73.0752 85.6891 72.5566 85.5344 72.0377 85.2567C71.5138 84.9253 71.0508 84.5268 70.6488 84.0611L70.024 83.4903L67.2159 80.7769L61.9163 75.8606C61.1518 75.1129 60.3653 74.3696 59.5568 73.6308C58.7237 72.8696 57.8785 72.0972 57.021 71.3137C55.948 70.3823 54.8332 69.3637 53.6767 68.2577C52.5396 67.1205 51.4761 66.0504 50.486 65.0475C49.9614 64.4699 49.5908 63.8611 49.374 63.2211C49.1089 62.7824 49.0193 62.1849 49.1053 61.4287C49.148 60.9275 49.3103 60.3883 49.5923 59.8112C49.8938 59.2027 50.2079 58.7285 50.5345 58.3885C50.6808 58.2767 50.8394 58.1761 51.0103 58.0867C51.1567 57.9749 51.3153 57.8743 51.4861 57.7849C51.6815 57.7178 51.8671 57.6665 52.043 57.6308C52.2383 57.5637 52.4362 57.5236 52.6366 57.5102C52.8564 57.4656 53.0788 57.4478 53.3037 57.4569C53.5041 57.4435 53.7044 57.4302 53.9048 57.4169C54.1102 57.4573 54.3034 57.4865 54.4843 57.5045C54.6652 57.5224 54.8559 57.5248 55.0563 57.5115L55.9655 57.532L76.0892 58.9048L73.6637 56.6884C72.8797 55.972 72.0737 55.2601 71.2458 54.5526C70.4127 53.7914 69.5455 53.0235 68.644 52.2488C67.615 51.3086 66.5125 50.3011 65.3365 49.2265C64.18 48.1205 63.1067 47.0661 62.1166 46.0632C61.7001 45.6826 61.3197 45.0895 60.9754 44.2838C60.7542 43.8362 60.6625 43.3349 60.7001 42.78C60.7378 42.2251 60.8659 41.6792 61.0844 41.1423C61.303 40.6054 61.5951 40.1357 61.9606 39.7331C62.3262 39.3305 62.7263 39.0577 63.161 38.9147C63.2929 38.888 63.4371 38.8724 63.5935 38.868C63.7499 38.8636 63.9088 38.886 64.0703 38.9353C64.4861 39.0698 64.8263 39.2333 65.0908 39.4259C65.4922 39.6454 65.8276 39.8782 66.0971 40.1245C69.1597 42.923 72.2834 45.7774 75.4685 48.6878C78.6729 51.5669 81.8162 54.3901 84.8982 57.1572C85.2412 57.4707 85.5939 57.7684 85.9564 58.0505C86.2944 58.3103 86.6251 58.6125 86.9487 58.9573Z" fill="#83D128"/>
<path d="M39.4943 21.5998C39.8913 22.0117 40.2837 22.4929 40.6713 23.0436C41.0784 23.5629 41.2732 24.2074 41.2556 24.9771C41.267 25.5768 41.1511 26.1339 40.9081 26.6484C40.665 27.1629 40.3485 27.6103 39.9584 27.9904C39.6123 28.3617 39.2269 28.6725 38.8023 28.9229C38.3532 29.1509 37.916 29.2671 37.4907 29.2713C35.7997 29.3958 34.1329 29.4196 32.4902 29.3427C30.8425 29.212 29.1851 29.0971 27.518 28.9978L20.3974 28.6787C19.4049 28.6066 18.3194 28.4987 17.1409 28.3549C15.938 28.1887 14.7866 28.0942 13.6866 28.0712L27.6376 41.0404L27.9684 41.3426C28.3604 41.7008 28.694 42.153 28.9691 42.6991C29.2393 43.1915 29.3826 43.7644 29.3989 44.4177C29.4002 44.91 29.2819 45.4402 29.0438 46.0085C28.6796 46.9033 28.2339 47.5273 27.7069 47.8806C27.1994 48.2026 26.6768 48.3634 26.1391 48.3631C25.6208 48.3316 25.1023 48.1769 24.5834 47.8992C24.0595 47.5678 23.5965 47.1693 23.1944 46.7036L22.5697 46.1328L19.7616 43.4194L14.462 38.5031C13.6974 37.7554 12.9109 37.0121 12.1024 36.2733C11.2694 35.5121 10.4241 34.7397 9.56664 33.9562C8.49366 33.0248 7.3789 32.0062 6.22236 30.9002C5.0853 29.763 4.02173 28.6929 3.03166 27.69C2.5071 27.1124 2.13643 26.5036 1.91966 25.8636C1.65454 25.4249 1.56499 24.8274 1.65099 24.0712C1.69366 23.57 1.856 23.0308 2.138 22.4537C2.43948 21.8452 2.75353 21.371 3.08014 21.031C3.2265 20.9192 3.3851 20.8186 3.55596 20.7292C3.70231 20.6174 3.86091 20.5168 4.03177 20.4274C4.22712 20.3604 4.41274 20.309 4.58862 20.2733C4.78397 20.2062 4.98184 20.1661 5.18223 20.1527C5.40208 20.1081 5.62445 20.0903 5.84934 20.0994C6.04972 20.0861 6.2501 20.0727 6.45049 20.0594C6.6559 20.0998 6.84906 20.129 7.02998 20.147C7.21089 20.1649 7.40154 20.1673 7.60192 20.154L8.5112 20.1745L28.6349 21.5473L26.2094 19.3309C25.4254 18.6145 24.6194 17.9026 23.7914 17.1951C22.9584 16.4339 22.0912 15.666 21.1897 14.8913C20.1607 13.9511 19.0582 12.9436 17.8821 11.869C16.7256 10.7631 15.6523 9.70863 14.6622 8.7057C14.2457 8.32511 13.8653 7.73197 13.521 6.92628C13.2999 6.47866 13.2081 5.9774 13.2458 5.42251C13.2834 4.86761 13.4115 4.3217 13.6301 3.7848C13.8487 3.2479 14.1407 2.77816 14.5063 2.37558C14.8718 1.97301 15.272 1.70023 15.7066 1.55724C15.8386 1.53046 15.9827 1.51487 16.1391 1.51048C16.2955 1.50608 16.4545 1.52853 16.6159 1.57784C17.0318 1.7123 17.3719 1.87581 17.6364 2.06837C18.0378 2.28786 18.3733 2.52073 18.6428 2.76699C21.7053 5.56547 24.8291 8.41992 28.0141 11.3303C31.2186 14.2094 34.3618 17.0326 37.4438 19.7997C37.7868 20.1132 38.1396 20.4109 38.5021 20.693C38.84 20.9528 39.1708 21.255 39.4943 21.5998Z" fill="#83D128"/>
<path d="M54.2138 6.28988C54.5331 7.16405 54.8309 8.04512 55.1071 8.93312C55.3834 9.82112 55.668 10.6925 55.961 11.5472C57.2794 15.3934 58.5846 19.23 59.8767 23.0568C61.1855 26.8503 62.5206 30.6632 63.8822 34.4957C64.1334 33.9965 64.3259 33.6138 64.4599 33.3476C64.5939 33.0813 64.7027 32.865 64.7865 32.6986C64.8869 32.499 64.9958 32.2827 65.113 32.0497C65.2302 31.8168 65.4193 31.4771 65.6801 31.0306C65.9145 30.5648 66.2327 29.9325 66.6346 29.1338C67.0533 28.3019 67.6059 27.2037 68.2925 25.8393C68.7279 24.9741 69.1549 24.1255 69.5735 23.2935C70.0089 22.4283 70.4707 21.5825 70.9589 20.7562C71.069 20.6092 71.1874 20.4456 71.3143 20.2654C71.4148 20.0658 71.5332 19.9022 71.6697 19.7747L71.9391 19.5626C71.9391 19.5626 72.0157 19.4823 72.1689 19.3215C72.5545 19.0582 72.9329 18.881 73.3042 18.7897C74.0661 18.7127 74.7264 19.017 75.2852 19.7027C75.4531 19.8721 75.5826 20.0816 75.6739 20.3314C75.7555 20.5284 75.8156 20.7324 75.8541 20.9433C75.9311 21.365 75.917 21.7881 75.8119 22.2125C75.786 22.6952 75.6857 23.1459 75.5111 23.5647C75.4537 23.7505 75.3964 23.9364 75.339 24.1222C75.272 24.2553 75.1967 24.405 75.1129 24.5714L65.9947 42.6912C65.8942 42.8909 65.7937 43.0906 65.6932 43.2902C65.5928 43.4899 65.4791 43.6799 65.3523 43.8601C65.2756 43.9405 65.2122 44.0306 65.162 44.1304C65.1285 44.197 65.0818 44.2538 65.022 44.3009C64.9286 44.4146 64.8484 44.538 64.7814 44.6711C64.7048 44.7515 64.6115 44.8652 64.5014 45.0121C64.1589 45.2615 63.8716 45.4375 63.6392 45.5399C63.2009 45.7643 62.8415 45.7959 62.5611 45.6348L62.5215 45.6056C62.3562 45.5749 62.2124 45.5374 62.0902 45.4929C61.9847 45.4151 61.8612 45.3013 61.7197 45.1513C61.6933 45.1319 61.6718 45.1388 61.655 45.1721C61.6287 45.1527 61.5891 45.1235 61.5364 45.0846C61.3781 44.968 61.2498 44.8277 61.1515 44.664C61.0267 44.4808 60.902 44.2976 60.7773 44.1144C60.7316 43.9895 60.6776 43.8812 60.6153 43.7896C60.5433 43.6453 60.4928 43.4941 60.464 43.3359C60.3656 43.1722 60.2756 42.9918 60.194 42.7947C60.1291 42.5644 60.0475 42.3674 59.9491 42.2036C59.8771 42.0593 59.8052 41.915 59.7332 41.7706C59.6515 41.5736 59.5879 41.4126 59.5423 41.2878C59.5038 41.0769 59.4617 40.909 59.4161 40.7841C59.3609 40.6065 59.2972 40.4456 59.2253 40.3012L57.6438 35.5767L54.6397 26.9975C54.2433 25.7016 53.8122 24.4029 53.3464 23.1014C52.8709 21.7471 52.3774 20.3568 51.866 18.9304C51.465 17.8592 51.1312 16.906 50.8646 16.0707C50.5716 15.216 50.2558 14.2988 49.9172 13.3192C49.3311 14.4839 48.7785 15.5821 48.2593 16.6137C47.7569 17.6121 47.2546 18.6104 46.7522 19.6087C46.2234 20.5876 45.6827 21.6262 45.1301 22.7243C44.5679 23.7698 43.947 24.9317 43.2675 26.2101C43.0067 26.6566 42.6777 27.1668 42.2804 27.7407C41.8735 28.2619 41.4245 28.6153 40.9334 28.8008C40.4855 28.9724 40.0998 28.9846 39.7762 28.8373C39.4622 28.7427 39.1207 28.5593 38.7515 28.2872C38.3295 27.9761 38.0357 27.5542 37.8699 27.0214C37.6946 26.4358 37.6534 25.8352 37.7463 25.2194C37.887 24.365 38.1248 23.605 38.4598 22.9395C38.6176 22.554 38.7886 22.1782 38.9728 21.8121C39.157 21.4461 39.3065 21.0772 39.4212 20.7056L39.5468 20.456C40.0061 19.4715 40.7262 18.0405 41.7071 16.1631C42.6783 14.233 43.8924 11.8204 45.3493 8.92518C45.5336 8.55913 45.7261 8.17643 45.9271 7.7771C46.1017 7.35832 46.2943 6.97563 46.5048 6.62901C46.9427 5.9025 47.3578 5.11356 47.7501 4.26217C48.1591 3.3775 48.6977 2.7024 49.3658 2.23686C49.5454 2.09552 49.7298 1.98054 49.919 1.89191C50.1083 1.80329 50.2927 1.68831 50.4723 1.54696C50.9633 1.36149 51.3982 1.43119 51.7771 1.75609C52.1726 2.04772 52.5228 2.46553 52.8275 3.00954C53.149 3.52027 53.4237 4.08784 53.6519 4.71224C53.88 5.33664 54.0673 5.86253 54.2138 6.28988Z" fill="#83D128"/>
<path d="M31.3898 47.795C31.6844 48.6778 31.9573 49.5669 32.2084 50.4624C32.4595 51.3578 32.7195 52.2368 32.9883 53.0995C34.1978 56.9813 35.3945 60.8531 36.5782 64.7147C37.7796 68.5436 39.0069 72.3927 40.2599 76.2619C40.5251 75.77 40.7284 75.3929 40.8698 75.1306C41.0112 74.8682 41.1261 74.6551 41.2145 74.4911C41.3205 74.2943 41.4354 74.0812 41.5592 73.8516C41.6829 73.6221 41.8814 73.2879 42.1547 72.8489C42.4022 72.3898 42.738 71.7668 43.1623 70.9797C43.6042 70.1599 44.1875 69.0777 44.9123 67.7332C45.3719 66.8806 45.8227 66.0444 46.2646 65.2246C46.7242 64.3719 47.2096 63.5395 47.7208 62.7272C47.835 62.5835 47.958 62.4233 48.0899 62.2467C48.196 62.0499 48.319 61.8897 48.459 61.7661L48.7343 61.5618C48.7343 61.5618 48.8131 61.4836 48.9708 61.3272C49.3636 61.0749 49.7469 60.9084 50.1206 60.8276C50.8844 60.7721 51.5359 61.0949 52.0751 61.796C52.2382 61.9701 52.3618 62.1832 52.4459 62.4354C52.522 62.6347 52.5763 62.8403 52.6088 63.0521C52.6739 63.4759 52.6479 63.8984 52.5309 64.3197C52.4914 64.8014 52.3784 65.2492 52.1921 65.6629C52.1295 65.847 52.067 66.0311 52.0044 66.2153C51.9337 66.3465 51.8542 66.494 51.7658 66.658L42.1407 84.5138C42.0347 84.7105 41.9286 84.9073 41.8226 85.104C41.7165 85.3008 41.5975 85.4875 41.4656 85.6641C41.3868 85.7423 41.3209 85.8305 41.2678 85.9289C41.2325 85.9945 41.1842 86.05 41.1231 86.0954C41.0265 86.2064 40.9429 86.3275 40.8722 86.4587C40.7934 86.5369 40.6968 86.6479 40.5826 86.7917C40.2333 87.0313 39.9411 87.1991 39.706 87.295C39.2615 87.5069 38.9014 87.5284 38.6256 87.3594L38.5869 87.3291C38.4225 87.2938 38.2798 87.2522 38.1588 87.2043C38.0556 87.1236 37.9354 87.0063 37.7982 86.8525C37.7724 86.8323 37.7506 86.8386 37.7329 86.8714C37.7071 86.8512 37.6684 86.821 37.6168 86.7806C37.4619 86.6595 37.3376 86.5158 37.2439 86.3493C37.1244 86.1627 37.0048 85.976 36.8853 85.7894C36.8432 85.6633 36.7923 85.5535 36.7325 85.4602C36.6646 85.3139 36.6185 85.1613 36.5941 85.0024C36.5004 84.8359 36.4155 84.6531 36.3394 84.4538C36.2811 84.2218 36.205 84.0225 36.1113 83.856C36.0434 83.7097 35.9755 83.5634 35.9076 83.4172C35.8316 83.2179 35.7725 83.0552 35.7305 82.9291C35.6979 82.7172 35.6606 82.5482 35.6185 82.4221C35.5683 82.243 35.5092 82.0803 35.4413 81.934L33.9936 77.1668L31.2323 68.5064C30.8726 67.1999 30.4782 65.8895 30.0492 64.5754C29.6121 63.2083 29.158 61.8046 28.6869 60.3644C28.3163 59.2823 28.0095 58.3201 27.7665 57.4776C27.4977 56.615 27.2079 55.6893 26.897 54.7005C26.2783 55.8483 25.695 56.9305 25.147 57.947C24.6167 58.9308 24.0864 59.9146 23.5561 60.8984C22.9999 61.862 22.4302 62.8849 21.8469 63.9671C21.2554 64.9963 20.6021 66.1402 19.8869 67.399C19.6136 67.8379 19.2703 68.3387 18.857 68.9012C18.4355 69.4108 17.9768 69.7513 17.4807 69.9229C17.0281 70.0819 16.6422 70.0832 16.3229 69.9268C16.0117 69.8234 15.6755 69.6305 15.3141 69.348C14.9011 69.0252 14.6192 68.5951 14.4685 68.0579C14.3097 67.4677 14.2855 66.8661 14.3958 66.2531C14.5605 65.4031 14.8196 64.6501 15.1731 63.9942C15.3417 63.6133 15.5233 63.2425 15.7177 62.8818C15.9122 62.5211 16.072 62.1566 16.1971 61.7883L16.3297 61.5423C16.8165 60.5712 17.5766 59.1611 18.61 57.312C19.6353 55.4101 20.9168 53.0326 22.4547 50.1796C22.6492 49.8188 22.8524 49.4417 23.0646 49.0482C23.2509 48.6345 23.4542 48.2574 23.6744 47.9169C24.1326 47.203 24.5698 46.426 24.9859 45.586C25.4197 44.7132 25.977 44.0536 26.658 43.607C26.8415 43.4708 27.0291 43.3611 27.2207 43.2778C27.4123 43.1946 27.5999 43.0848 27.7834 42.9486C28.2795 42.777 28.7123 42.8589 29.0818 43.1944C29.469 43.497 29.8072 43.9245 30.0965 44.4769C30.4035 44.9965 30.6622 45.5716 30.8726 46.2022C31.083 46.8327 31.2554 47.3637 31.3898 47.795Z" fill="#83D128"/>
</svg>
